<svg viewBox="0 0 48 48"><path d="M18 6V2a2 2 0 1 0-4 0v4a2 2 0 1 0 4 0zM2 18h4a2 2 0 1 0 0-4H2a2 2 0 1 0 0 4zM9.41 6.59l-2-2a2 2 0 0 0-2.82 2.82l2 2a2 2 0 0 0 2.82-2.82zM32 48a2 2 0 0 0 2-2v-4a2 2 0 1 0-4 0v4a2 2 0 0 0 2 2zm16-16a2 2 0 0 0-2-2h-4a2 2 0 1 0 0 4h4a2 2 0 0 0 2-2zm-7.41 11.41a2 2 0 0 0 2.82-2.82l-2-2a2 2 0 0 0-2.82 2.82l2 2zM2 34.1c.011 6.568 5.332 11.889 11.9 11.9a11.79 11.79 0 0 0 8.41-3.49l6.2-6.2a11.89 11.89 0 0 0 0-16.82 2 2 0 1 0-2.83 2.82 7.92 7.92 0 0 1 0 11.18l-6.2 6.2A7.91 7.91 0 0 1 8.31 28.51l3.1-3.1a2 2 0 0 0-2.82-2.82l-3.1 3.1A11.79 11.79 0 0 0 2 34.1z"/><path d="M36.59 22.59a2 2 0 0 0 2.82 2.82l3.1-3.1A11.79 11.79 0 0 0 46 13.9C45.989 7.332 40.668 2.011 34.1 2a11.79 11.79 0 0 0-8.41 3.49l-6.2 6.2a11.88 11.88 0 0 0 0 16.82 2 2 0 0 0 2.82 0 2 2 0 0 0 0-2.82 7.92 7.92 0 0 1 0-11.18l6.2-6.2a7.91 7.91 0 0 1 11.18 11.18l-3.1 3.1z"/></svg>
