<?xml version="1.0" encoding="UTF-8"?>
<svg width="48px" height="48px" viewBox="0 0 48 48" version="1.1" xmlns="http://www.w3.org/2000/svg" xmlns:xlink="http://www.w3.org/1999/xlink">
    <!-- Generator: Sketch 51.2 (57519) - http://www.bohemiancoding.com/sketch -->
    <title>noun_link_1515599_000000</title>
    <desc>Created with Sketch.</desc>
    <defs></defs>
    <g id="Page-1" stroke="none" stroke-width="1" fill="none" fill-rule="evenodd">
        <g id="Desktop" transform="translate(-725.000000, -324.000000)" fill="#000000" fill-rule="nonzero">
            <g id="noun_link_1515599_000000" transform="translate(725.000000, 324.000000)">
                <path d="M18,6 L18,2 C18,0.8954305 17.1045695,0 16,0 C14.8954305,0 14,0.8954305 14,2 L14,6 C14,7.1045695 14.8954305,8 16,8 C17.1045695,8 18,7.1045695 18,6 Z" id="Shape"></path>
                <path d="M2,18 L6,18 C7.1045695,18 8,17.1045695 8,16 C8,14.8954305 7.1045695,14 6,14 L2,14 C0.8954305,14 0,14.8954305 0,16 C0,17.1045695 0.8954305,18 2,18 Z" id="Shape"></path>
                <path d="M9.41,6.59 L7.41,4.59 C6.61647945,3.91044641 5.43361166,3.95613546 4.69487356,4.69487356 C3.95613546,5.43361166 3.91044641,6.61647945 4.59,7.41 L6.59,9.41 C7.38352055,10.0895536 8.56638834,10.0438645 9.30512644,9.30512644 C10.0438645,8.56638834 10.0895536,7.38352055 9.41,6.59 Z" id="Shape"></path>
                <path d="M32,48 C33.1045695,48 34,47.1045695 34,46 L34,42 C34,40.8954305 33.1045695,40 32,40 C30.8954305,40 30,40.8954305 30,42 L30,46 C30,47.1045695 30.8954305,48 32,48 Z" id="Shape"></path>
                <path d="M48,32 C48,30.8954305 47.1045695,30 46,30 L42,30 C40.8954305,30 40,30.8954305 40,32 C40,33.1045695 40.8954305,34 42,34 L46,34 C47.1045695,34 48,33.1045695 48,32 Z" id="Shape"></path>
                <path d="M40.59,43.41 C41.3835206,44.0895536 42.5663883,44.0438645 43.3051264,43.3051264 C44.0438645,42.5663883 44.0895536,41.3835206 43.41,40.59 L41.41,38.59 C40.6164794,37.9104464 39.4336117,37.9561355 38.6948736,38.6948736 C37.9561355,39.4336117 37.9104464,40.6164794 38.59,41.41 L40.59,43.41 Z" id="Shape"></path>
                <path d="M2,34.1 C2.01101029,40.6676225 7.33237749,45.9889897 13.9,46 C17.0575731,46.0097828 20.0871159,44.7525766 22.31,42.51 L28.51,36.31 C30.7413375,34.0799895 31.9950015,31.0546496 31.9950015,27.9 C31.9950015,24.7453504 30.7413375,21.7200105 28.51,19.49 C28.0154066,18.9422307 27.2593442,18.7113572 26.5431185,18.8893871 C25.8268928,19.067417 25.2669173,19.6254137 25.0863532,20.3410047 C24.9057892,21.0565958 25.1339849,21.8134707 25.68,22.31 C28.7592633,25.4005847 28.7592633,30.3994153 25.68,33.49 L19.48,39.69 C16.355865,42.5411539 11.5415784,42.4301633 8.5521562,39.4380649 C5.56273404,36.4459664 5.45605157,31.6315824 8.31,28.51 L11.41,25.41 C12.0895536,24.6164794 12.0438645,23.4336117 11.3051264,22.6948736 C10.5663883,21.9561355 9.38352055,21.9104464 8.59,22.59 L5.49,25.69 C3.2474234,27.9128841 1.9902172,30.9424269 2,34.1 Z" id="Shape"></path>
                <path d="M36.59,22.59 C35.9104464,23.3835206 35.9561355,24.5663883 36.6948736,25.3051264 C37.4336117,26.0438645 38.6164794,26.0895536 39.41,25.41 L42.51,22.31 C44.7525766,20.0871159 46.0097828,17.0575731 46,13.9 C45.9889897,7.33237749 40.6676225,2.01101029 34.1,2 C30.9424269,1.9902172 27.9128841,3.2474234 25.69,5.49 L19.49,11.69 C17.2562067,13.9187058 16.0008462,16.9445346 16.0008462,20.1 C16.0008462,23.2554654 17.2562067,26.2812942 19.49,28.51 C20.2700749,29.2854472 21.5299251,29.2854472 22.31,28.51 C23.0854472,27.7299251 23.0854472,26.4700749 22.31,25.69 C19.2307367,22.5994153 19.2307367,17.6005847 22.31,14.51 L28.51,8.31 C31.6257261,5.39870201 36.4883648,5.4811452 39.5036098,8.49639021 C42.5188548,11.5116352 42.601298,16.3742739 39.69,19.49 L36.59,22.59 Z" id="Shape"></path>
            </g>
        </g>
    </g>
</svg>