<?xml version="1.0" encoding="UTF-8"?>
<svg width="48px" height="48px" viewBox="0 0 48 48" version="1.1" xmlns="http://www.w3.org/2000/svg" xmlns:xlink="http://www.w3.org/1999/xlink">
    <!-- Generator: Sketch 51.2 (57519) - http://www.bohemiancoding.com/sketch -->
    <title>noun_write_1515264_000000</title>
    <desc>Created with Sketch.</desc>
    <defs></defs>
    <g id="Page-1" stroke="none" stroke-width="1" fill="none" fill-rule="evenodd">
        <g id="noun_write_1515264_000000" fill="#000000" fill-rule="nonzero">
            <path d="M2,48 L46,48 C46.6146819,47.999525 47.195004,47.7164222 47.5737324,47.2322745 C47.9524608,46.7481269 48.0875239,46.1167167 47.94,45.52 L41.94,21.52 C41.7194145,20.6277552 40.9191073,20.0007104 40,20 L32,20 L32,6 C32,2.6862915 29.3137085,0 26,0 L22,0 C18.6862915,0 16,2.6862915 16,6 L16,20 L8,20 C7.0808927,20.0007104 6.28058554,20.6277552 6.06,21.52 L0.06,45.52 C-0.0875238865,46.1167167 0.0475392194,46.7481269 0.426267587,47.2322745 C0.804995954,47.7164222 1.38531809,47.999525 2,48 Z M20,12 L28,12 L28,29.33 L24,34.67 L20,29.33 L20,12 Z M22,4 L26,4 C27.1045695,4 28,4.8954305 28,6 L28,8 L20,8 L20,6 C20,4.8954305 20.8954305,4 22,4 Z M9.56,24 L16,24 L16,30 C16,30.4327404 16.1403557,30.8538077 16.4,31.2 L22.4,39.2 C22.7777088,39.7036117 23.3704854,40 24,40 C24.6295146,40 25.2222912,39.7036117 25.6,39.2 L31.6,31.2 C31.8596443,30.8538077 32,30.4327404 32,30 L32,24 L38.44,24 L43.44,44 L4.56,44 L9.56,24 Z" id="Shape"></path>
        </g>
    </g>
</svg>